<mxfile host="www.draw.io" modified="2019-10-30T09:26:00.184Z" agent="Mozilla/5.0 (Windows NT 10.0; Win64; x64; rv:70.0) Gecko/20100101 Firefox/70.0" etag="fioqzI5HAZd-kW_eCoc6" version="12.1.8" type="github" pages="1">
  <diagram id="PagjJDJrfl8wa27CeTan" name="Page-1">
    <mxGraphModel dx="930" dy="890" grid="1" gridSize="10" guides="1" tooltips="1" connect="1" arrows="1" fold="1" page="1" pageScale="1" pageWidth="827" pageHeight="1169" math="0" shadow="0">
      <root>
        <mxCell id="0"/>
        <mxCell id="1" parent="0"/>
      </root>
    </mxGraphModel>
  </diagram>
</mxfile>
